<svg width="16" height="16" viewBox="0 0 16 16" fill="none" xmlns="http://www.w3.org/2000/svg">
<g clip-path="url(#clip0)">
<path d="M10.087 0.305725V4.17391H13.9552L10.087 0.305725Z" fill="#AEB9C7"/>
<path d="M9.56523 5.21741C9.2772 5.21741 9.04348 4.98369 9.04348 4.69566V0H2.26089C1.97285 0 1.73914 0.233719 1.73914 0.52175V15.4783C1.73914 15.7663 1.97285 16 2.26089 16H13.7391C14.0272 16 14.2609 15.7663 14.2609 15.4783V5.21741H9.56523ZM8.52176 12.8696H4.34782C4.05979 12.8696 3.82607 12.6358 3.82607 12.3478C3.82607 12.0598 4.05979 11.8261 4.34782 11.8261H8.52173C8.80976 11.8261 9.04348 12.0598 9.04348 12.3478C9.04348 12.6358 8.80979 12.8696 8.52176 12.8696ZM11.6522 10.7826H4.34782C4.05979 10.7826 3.82607 10.5489 3.82607 10.2608C3.82607 9.97281 4.05979 9.73909 4.34782 9.73909H11.6522C11.9402 9.73909 12.1739 9.97281 12.1739 10.2608C12.1739 10.5489 11.9402 10.7826 11.6522 10.7826ZM11.6522 8.69566H4.34782C4.05979 8.69566 3.82607 8.46194 3.82607 8.17391C3.82607 7.88588 4.05979 7.65216 4.34782 7.65216H11.6522C11.9402 7.65216 12.1739 7.88588 12.1739 8.17391C12.1739 8.46194 11.9402 8.69566 11.6522 8.69566Z" fill="#AEB9C7"/>
</g>
<defs>
<clipPath id="clip0">
<rect width="16" height="16" fill="white"/>
</clipPath>
</defs>
</svg>
