<svg width="18" height="18" viewBox="0 0 18 18" fill="none" xmlns="http://www.w3.org/2000/svg">
<path fill-rule="evenodd" clip-rule="evenodd" d="M15.3675 15.3675C16.9963 13.7386 18 11.4845 18 9C18 6.51554 16.9963 4.26143 15.3675 2.63254C13.7386 1.00366 11.4845 0 9 0C6.51554 0 4.26143 1.00366 2.63254 2.63254C1.00366 4.26143 0 6.51554 0 9C0 11.4845 1.00366 13.7386 2.63254 15.3675C4.26143 16.9963 6.51554 18 9 18C11.4845 18 13.7386 16.9963 15.3675 15.3675ZM10.2176 12.4717C10.2176 11.7971 9.67459 11.2541 9 11.2541C8.32541 11.2541 7.766 11.7971 7.766 12.4717C7.766 13.1463 8.32541 13.7057 9 13.7057C9.67459 13.7057 10.2176 13.1463 10.2176 12.4717ZM9 10.0201C8.55576 10.0201 8.22669 9.65814 8.17733 9.19744L7.766 5.52834C7.70018 4.88665 8.37477 4.29433 9 4.29433C9.62523 4.29433 10.2998 4.88665 10.2176 5.52834L9.82267 9.19744C9.77331 9.65814 9.44424 10.0201 9 10.0201V10.0201Z" fill="#2469F0"/>
</svg>
