<svg width="16" height="16" viewBox="0 0 16 16" fill="none" xmlns="http://www.w3.org/2000/svg">
<path d="M8 0C3.58737 0 0 3.58737 0 8C0 12.4126 3.58737 16 8 16C12.4126 16 16 12.4126 16 8C16 3.58737 12.4126 0 8 0ZM9.54948 11.0821L9.49895 11.1326C9.21264 11.3853 8.85895 11.5537 8.47158 11.6379V12.7326H7.32632V11.6042C7.00632 11.52 6.72 11.3684 6.46737 11.1663C6.08 10.8463 5.84421 10.4084 5.77684 9.93684L6.95579 9.76842C6.97263 9.95368 7.07368 10.1221 7.24211 10.2568C7.66316 10.5937 8.33684 10.5937 8.72421 10.24C8.96 10.0211 9.07789 9.7179 9.06105 9.41474C9.04421 9.12843 8.90947 8.87579 8.67368 8.69052C8.38737 8.48842 8.11789 8.42105 7.79789 8.35368C7.37684 8.25263 6.88842 8.13474 6.45052 7.69684C6.02947 7.25895 5.81052 6.72 5.82736 6.19789C5.84421 5.70947 6.06316 5.25473 6.45052 4.90105L6.46737 4.88421C6.48421 4.86737 6.48421 4.86737 6.48421 4.86737C6.72 4.66527 7.02316 4.53052 7.32632 4.42947V3.28421H8.47158V4.41263C8.8421 4.49684 9.1621 4.68211 9.44842 4.9179C9.73473 5.17053 9.93684 5.49053 10.0379 5.84421L8.84211 6.02947C8.80842 5.94526 8.74105 5.87789 8.67368 5.81053C8.28632 5.47368 7.62947 5.47369 7.24211 5.79369C7.12421 5.91158 7.00631 6.06316 7.00631 6.26527C6.98947 6.46737 7.10737 6.68632 7.29263 6.88843C7.47789 7.09053 7.68 7.14106 8.06737 7.22527C8.4379 7.30948 8.90948 7.41052 9.38106 7.76421C9.88632 8.13473 10.2063 8.72421 10.24 9.36421C10.2568 9.98736 10.0211 10.6105 9.54948 11.0821Z" fill="#AEB9C7"/>
</svg>
