<svg width="16" height="16" viewBox="0 0 16 16" fill="none" xmlns="http://www.w3.org/2000/svg">
<path d="M0.894796 5.58727C0.892307 5.59509 0.890245 5.6032 0.887756 5.61095C0.890245 5.60312 0.892876 5.5953 0.895365 5.58748L0.894796 5.58727ZM6.84288 4.70023L5.329 0.815782C3.2261 1.65937 1.58635 3.41176 0.895436 5.58755L4.83862 6.95032C5.12889 5.92995 5.87464 5.10179 6.84288 4.70023ZM9.361 4.64803C10.3507 5.01127 11.1276 5.81376 11.4574 6.81891L15.3452 5.30389C14.5715 3.16423 12.8681 1.47022 10.7228 0.708191L9.36128 4.6481C9.36121 4.6481 9.36114 4.6481 9.361 4.64803ZM15.3168 10.5714C15.3351 10.5224 15.3529 10.4733 15.3701 10.424C15.3529 10.4734 15.3345 10.5222 15.3161 10.5712L15.3168 10.5714ZM11.3741 9.20647C10.987 10.1547 10.1922 10.8929 9.20697 11.2024C9.25746 11.1866 9.30752 11.1698 9.35695 11.1518L10.8708 15.0362C12.9207 14.2596 14.5479 12.6252 15.3161 10.5712L11.3733 9.20846C11.3736 9.20782 11.3739 9.20711 11.3741 9.20647ZM5.01526 9.3292C5.01526 9.32928 5.01526 9.32928 5.01526 9.32935C5.01526 9.32928 5.01526 9.3292 5.01526 9.3292ZM5.01533 9.32935L1.12754 10.8444C1.97106 12.8584 3.65348 14.4333 5.73782 15.1332L7.09967 11.1925C6.17103 10.8914 5.4149 10.2088 5.01533 9.32935ZM5.73753 15.1339C5.74472 15.1364 5.75218 15.1384 5.75936 15.1408C5.75211 15.1384 5.745 15.1356 5.73775 15.1332L5.73753 15.1339ZM1.1274 10.8445L1.12754 10.8444C1.1269 10.8429 1.12626 10.8415 1.12562 10.84C1.12626 10.8415 1.12676 10.843 1.1274 10.8445Z" fill="#AEB9C7"/>
<path d="M14.6555 8C14.6555 9.77778 13.9633 11.4491 12.7062 12.7062C11.4491 13.9633 9.77778 14.6555 8 14.6555C6.22222 14.6555 4.5509 13.9633 3.29387 12.7062C2.03684 11.4491 1.3445 9.77778 1.3445 8C1.3445 4.33017 4.3301 1.3445 8 1.3445C11.6698 1.3445 14.6555 4.33017 14.6555 8ZM8 0C3.58876 0 0 3.58876 0 8C0 10.137 0.832142 12.1458 2.34318 13.6569C3.85408 15.1679 5.86311 16 8 16C10.137 16 12.1458 15.1679 13.6569 13.6569C15.1679 12.1458 16 10.137 16 8C16 3.58876 12.4112 0 8 0Z" fill="#AEB9C7"/>
<path d="M10.8235 8.03362C10.8235 9.64614 9.51175 10.958 7.8991 10.958C6.28665 10.958 4.97479 9.64614 4.97479 8.03362C4.97479 6.42118 6.28665 5.10925 7.8991 5.10925C9.51175 5.10925 10.8235 6.42111 10.8235 8.03362ZM7.89917 3.76468C5.54525 3.76468 3.63029 5.6797 3.63029 8.03355C3.63029 10.3874 5.54525 12.3024 7.89917 12.3024C10.2531 12.3024 12.1682 10.3873 12.1682 8.03355C12.1681 5.6797 10.2531 3.76468 7.89917 3.76468Z" fill="#AEB9C7"/>
</svg>
